# xmcd
#
# Track frame offsets:
#	150
#	10800
#	23947
#	36900
#	50135
#	58951
#	72636
#	83904
#	101641
#	108486
#	120201
#	132227
#
# Disc length: 1928 seconds
# Revision: 2
# Processed by: cddbd v1.5.2PL0 Copyright (c) Steve Scherf et al.
# Submitted via: dBpowerAMP V12.0
#
DISCID=a907860c
DTITLE=Jimmy Martin - 12 Memories from Jimmy Martin to Us
DYEAR=2007
DGENRE=Bluegrass
TTITLE0=Run Pete Run
TTITLE1=Rolling In My Sweet Baby's Arms
TTITLE2=Who's Calling You Sweetheart Tonight
TTITLE3=Bluegrass Singin' Man
TTITLE4=Beautiful Brown Eyes
TTITLE5=Play Me Some George Jones Songs
TTITLE6=Pete, the Best Coon Dog in the State of Tennessee
TTITLE7=Knoxville Girl
TTITLE8=Eagle Eye Tom [Instrumental]
TTITLE9=Lover's Lane
TTITLE10=Sweet Little Maggie
TTITLE11=Don't Let Your Sweet Love Die
EXTD=
EXTT0=
EXTT1=
EXTT2=
EXTT3=
EXTT4=
EXTT5=
EXTT6=
EXTT7=
EXTT8=
EXTT9=
EXTT10=
EXTT11=
PLAYORDER=
